<?xml version="1.0" encoding="UTF-8"?>
<svg id="Capa_1" data-name="Capa 1" xmlns="http://www.w3.org/2000/svg" viewBox="0 0 184.52 58.96">
  <defs>
    <style>
      .cls-1 {
        fill: #fcfbf9;
      }

      .cls-2 {
        fill: #fcfcfc;
      }

      .cls-3 {
        fill: #d7d7d7;
      }

      .cls-4 {
        fill: #3f3f3f;
      }

      .cls-5 {
        fill: #f5a138;
      }

      .cls-6 {
        fill: #3b3b3b;
      }

      .cls-7 {
        fill: #bdbdbd;
      }

      .cls-8 {
        fill: #d8d8d8;
      }

      .cls-9 {
        fill: #dbdbdb;
      }

      .cls-10 {
        fill: #fefefd;
      }

      .cls-11 {
        fill: #333;
      }

      .cls-12 {
        fill: #efefef;
      }

      .cls-13 {
        fill: #fefdfd;
      }

      .cls-14 {
        fill: #dfdfdf;
      }

      .cls-15 {
        fill: #eee;
      }

      .cls-16 {
        fill: #dcdcdc;
      }

      .cls-17 {
        fill: #dadada;
      }

      .cls-18 {
        fill: #e4e4e4;
      }

      .cls-19 {
        fill: #fefefe;
      }

      .cls-20 {
        fill: #f5a238;
      }

      .cls-21 {
        fill: #fafafa;
      }

      .cls-22 {
        fill: #f8f8f8;
      }

      .cls-23 {
        fill: #9d9d9d;
      }

      .cls-24 {
        fill: #f5a239;
      }

      .cls-25 {
        fill: #343434;
      }

      .cls-26 {
        fill: #d9d9d9;
      }

      .cls-27 {
        fill: #dededd;
      }

      .cls-28 {
        fill: #fdfdfd;
      }

      .cls-29 {
        fill: #818181;
      }

      .cls-30 {
        fill: #f3f3f3;
      }
    </style>
  </defs>
  <path class="cls-11" d="M61.52,2.06v3.66h7.53l.83,1.67-.32.66c-.12.12-.84.51-.92.51h-5.9l2.44.82c-.52,1.09-2.75.93-3.69.63s-1.42-1.37-2.02-1.64c-1.86-.86-6.17.7-6.86,2.76,1.91,1.93-.32,2.46-.5,4.14-.09.86.25,3.34.44,4.29.1.5.2,1.32.61,1.63.42-.01.13-1.2.2-1.63.4-2.28,1-3.99,2.84-5.51,5.77-4.73,11.42-.66,16.3,3.06.52.4,1.17.83,1.63,1.22.94.8,3.04,2.57,3.61,3.52.72,1.21,1.03,2.49.47,3.81-.5,1.34-2.66.52-4.07.41-2.97-.24-6-.51-8.96-.81-2.39-.25-4.86-.62-7.33-.81-.95-.08-.62-.75-2.44,0-1.27.53-1.73,1.47-2.46,1.85-.62.33-1.01-.23-1.2-.22-.46-.92-1.85-1.34-2.44-2.04-.08-.09-1.11-1.82-1.22-2.04-.21-.43-1.17-2.93-1.22-3.26-.14-.9.19-4.66,0-4.89l-1.22.41.83.66c.25,2.33-1.14,3.46-2.46,5.04.63.56,2.5-2.66,2.44-.4.02.76.44,2.15,1.22,2.44-.63,1.77-.89,2.68-2.85,2.04-.13-.04-.37.06-.41,0-.06-.09.12-.55-.07-.73-.34-.26-.87,0-1.15-.08-.33-.1-.63-.34-.79-.65-.13-.74,1.41-1.04.18-1.79l-10,9.95c-.42,1.68-1.29,2.64-.79,4.3.16.54.63,1.09.81,1.63.5,1.5.99,2.89,1.22,4.48.41,2.85.3,5.7,0,8.55l-.26.37c-.89.17-3.24-1.3-3.81-2-.76-.93-1.62-3.63-2.04-4.89l.33-.27c.53-1.05-.2-1.91-.33-2.58-.05-.25.07-.62,0-.81-1.13-3.13-3.7-2.86-5.48-4.5-2.14-1.97-1.93-4.03-5.52-6.09-2.24-1.28-4.73-2-7.33-2.04-.1-.6.76-.51,1.21-.61,4.1-.94,8.11-.87,12.09.54,2.04.72,3.54,2.34,5.84,1.88l10.57-10.56-3.48-.59c-.7-2.35-.78-5.05.62-7.15,3.2-.6,6.32-.2,9.18,1.32l3.71-3.53,1.93,1.17c2.38-2.77,5.7-3.66,9.24-3.82l.79-3.9c.27-.02.37.39.41.41Z"/>
  <path class="cls-17" d="M149.06,28.53v1.63c-2.27-2.59-7.51-4.51-9.64-6.65-1.78-1.78-2.9-5.6-5.22-7.2-.87,4.47,1.82,9.26-1.83,13.03-2.27-1.45-7.11-.56-9.77-.81v17.1h3.26v-6.51l2.06.59,2.89,5.86,4.01.06-3.66-7.31c1.76,0,3.13-2.59,3.25-4.09-.02,1.01,1.1,1.33,1.24,2.26.27,1.88-2.66,5.43,1.2,5.07l.41-13.03v17.1c.29.29,6.86-.25,8.14,0,.38.07,2.28,1.05,2.44,1.63l-25.04-.41c-1.1-.19-2.1-1.89-3.09-2.61-1.05-.77-2.51-1.21-3.46-2.25-1.29-1.41-1.51-3.74-3.24-4.9l-.61,1.63c.17-1.61.09-3.36-.41-4.89,1.2.07,2.09-.65,2.98-1.29,1.61-1.16,2.62-3.01,3.84-4.01,1.03-.84,2.87-1.03,3.75-1.84s1.55-3.24,2.46-4.46c1.07-1.44,2.78-2.29,3.89-3.44.96-1.01,2.84-4.4,4.07-4.52,2.12-.2,5.5,6.66,7.15,8.33,1.11,1.13,7.66,5.73,8.92,5.94Z"/>
  <path class="cls-11" d="M16.73,28.93c3.59,2.05,3.38,4.12,5.52,6.09,1.78,1.64,4.35,1.37,5.48,4.5-.73.44-.34,1.68-.41,2.44-.1.88.31.92.41,1.22.42,1.26,1.27,3.96,2.04,4.89C24.53,64.46.55,61.67,0,44.21c-.28-8.95,7.97-16.08,16.72-15.28ZM12.96,33.91c-12.27,2.1-10.02,22.61,4.29,20.17,12.31-2.1,9.97-22.61-4.29-20.17Z"/>
  <path class="cls-17" d="M57.85,24.45c-1.39-.06-.8.2-.13.74,1.36,1.11,2.86,2.13,4.48,2.85.67.06,3.09-1.77,2.98-2.78,2.96.31,5.99.58,8.96.81l-.41,2.85c-9.55-2.53-15.48,7.29-9.54,14.22,2.77,3.23,9.15,3.53,12.39.85l1.22,2.85-43.57.41-.41,2.45c.3-2.85.41-5.7,0-8.55l2.3-2.39,2.19.59c1.19-2.39,2.32-4.3,4.47-5.94h.41c-.05,4.07.04,8.15,0,12.22h3.26v-9.37c.65.08.87.9,1.22,1.22-.72,2.11-1.2,4.28-.62,6.53,1.17,1.96,3.28-3.47,3.47-3.68.06-.06.7-.07,1.01-.39,1.23-1.27,2.46-2.62,3.87-3.68v9.37h3.26c-.1-5.28.13-10.6,0-15.88l2.44-1.02c-2.05-1.26-3.99-2.58-5.7-4.28,1.83-.75,1.5-.08,2.44,0Z"/>
  <path class="cls-5" d="M73.74,28.93c6.4,1.7,7.75,11,2.85,15.07-3.23,2.68-9.62,2.38-12.39-.85-5.94-6.93-.01-16.75,9.54-14.22ZM73.74,41.15c3.04-2.33,2.86-6.61-.41-8.55-6.72-3.99-11.03,7.16-4.37,9.46,2.2.76,3.15.35,4.78-.91Z"/>
  <path class="cls-20" d="M102.65,28.53c.97-.08,3.24-.17,4.07,0,1.86.38,4.7,3.46,5.29,5.29.5,1.53.58,3.27.41,4.89-.87,8.08-12.75,9.69-16.37,2.73-.85-1.64-1.22-5.46-.73-7.21.04-.13,1.14-2.33,1.22-2.44.31-.46,2.69-2.32,3.3-2.6,1.1-.53,1.64-.56,2.81-.65ZM99.8,34.23c-.47.79-1.1,1.2-.81,2.44-.58.18-1.98.15-2.03.81,2.84-.26,1.86,2.53,3.67,3.86,1.46,1.07,3.45.35,3.25,3.06.78-.04.2-1.16.77-1.87.81-1.01,4.39-1.31,4.2-4.55l2.35-.5-2.38-.88c-.12-1.02-.3-2.08-.94-2.93-1.18-1.58-3.75-1.23-3.61-3.52-.73-.06-.27.9-.79,1.44-.47.47-2.2.73-3.03,1.46-.65.57-.44.82-.65,1.17Z"/>
  <path class="cls-11" d="M152.32,30.97c1.63,1.84,3.22,4.18,4.89,5.9.39.4.54.77,1.21.61.17-2.6-.21-5.41-.02-7.97.04-.57.4-.86.43-.98.76.09,1.73-.13,2.44,0,.2.04.59.28.81.41v.81c0,2.44,0,4.89,0,7.33,0,1.08.01,2.17,0,3.26-.02,1.89.02,3.8,0,5.7l-.96-.06-8.81-9.31v8.96h-3.26c0-5.15,0-10.32,0-15.47v-1.63s.26-.53.78-.23c.73.41,1.84,1.96,2.48,2.68Z"/>
  <path class="cls-11" d="M132.37,29.34c1.04.66,2.13,3.64,2.04,4.89-.12,1.49-1.49,4.08-3.25,4.09l3.66,7.31-4.01-.06-2.89-5.86-2.06-.59v6.51h-3.26v-17.1c2.67.25,7.5-.63,9.77.81ZM130.24,35.35c1.77-3.63-1.75-3.28-4.38-3.16v3.67s4.38-.5,4.38-.5Z"/>
  <path class="cls-11" d="M137.26,28.53c1.41.24,7.8-.48,8.37.38.36.54.35,2.74-.2,3.11l-4.92.41v3.03s4.49.23,4.49.23v3.03s-4.49,0-4.49,0v3.67s5.3,0,5.3,0l-.41,3.26c-1.28-.25-7.86.29-8.15,0v-17.1Z"/>
  <path class="cls-25" d="M172.27,32.19l-.41,13.44h-3.26v-12.85s-.41-.59-.41-.59h-3.26c-.39-.31-.56-.59-.81-.81,0-.27,0-.54,0-.81,0-.45-.06-.91.06-1.35.08-.34.28-.52.61-.63.56-.19,10.3-.19,10.88,0,.91.3.9,2.61.49,3.23-.49.75-2.97.25-3.89.38Z"/>
  <path class="cls-24" d="M85.95,28.53c1.21-.02,6.36-.21,6.95.18l-.03,3.49c-1.1-.25-2.86.18-4.07,0v13.44h-3.26v-13.44l-4.1-.18c-1.68-4.46,1.4-3.43,4.5-3.49Z"/>
  <path class="cls-19" d="M98.57,22.01c.16.13.6.59.81.81-.85,1.32.86,1.72,1.22,2.04.05.04-.1.49.1.69.49.49,3.76.53,4.37,2.36l-2.44.61c-1.17.1-1.71.12-2.81.65-.6.29-2.98,2.15-3.3,2.6l-3.06-4.09c-.24-.37-.24-.78-.2-1.21,0-.08.38-.51.41-1.22l2.65-4.88c.44.97,1.8,1.26,2.24,1.62Z"/>
  <path class="cls-11" d="M92.06,22.01l1.15.08.48,1.15c-.06.66.03,1.36,0,2.04-.03.71-.4,1.14-.41,1.22h-4.89c-.81,0-1.63,0-2.44,0-.41,0-.81,0-1.22,0-1.51-.02-5.15.36-6.11-.41l2.04-2.44c.86-.08,1.85.14,2.68.02.54-.08.89-.41.98-.43,2.55-.4,5.19-.58,7.74-1.22Z"/>
  <path class="cls-17" d="M160.87,27.71l-2.03-.81c-.07.52.08,1.14,0,1.63-.02.12-.38.42-.43.98-.2,2.57.18,5.38.02,7.97-.67.15-.83-.22-1.21-.61-1.67-1.72-3.26-4.05-4.89-5.9.69-.9,4.93-5.07,5.58-5.24,1.16-.3,2.41,1.11,2.97,1.98Z"/>
  <path class="cls-17" d="M85.95,26.49c0,.74.49,1.18,1.02,1.62l1.43-1.62h4.89c-.04.42-.04.83.2,1.21l3.06,4.09c-.08.11-1.18,2.31-1.22,2.44-.39-.51-1.99-1.93-2.44-2.04l.03-3.49c-.59-.39-5.73-.2-6.95-.18l-1.22-2.04c.41,0,.81,0,1.22,0Z"/>
  <path class="cls-16" d="M183.27,44l-.41.41c-1.8-1.22-3.86-2.2-5.49-3.67-1.8-1.63-2.14-3.36-5.1-3.65l-.41,8.55.41-13.44.37,3.91c2.95.76,4.09,2.81,6.14,4.45,1.48,1.18,3.08,2.18,4.49,3.45Z"/>
  <path class="cls-22" d="M74.14,18.35l.41-1.63c.79.06.99,1.31,1.31,1.54.27.2.61.03.72.08.55.84.93,1.74,1.64,2.64s1.84,1.58,2.43,2.66l-2.04,2.44-.41-.41c.56-1.32.26-2.6-.47-3.81-.57-.95-2.66-2.72-3.61-3.52Z"/>
  <path class="cls-9" d="M168.2,41.15c0,.41,0,.81,0,1.22l-6.11-2.04c.01-1.08,0-2.17,0-3.26,2.13,1.17,3.8,3.27,6.11,4.07Z"/>
  <path class="cls-17" d="M98.57,22.01c-.44-.36-1.8-.65-2.24-1.62l-2.65,4.88c.03-.67-.06-1.37,0-2.04.05-.53-.03-1.09,0-1.63,1.41-2.65,3.89-2.34,4.89.41Z"/>
  <path class="cls-8" d="M166.17,32.19l1.83,1.23.21-1.23.42.59v12.85s-.39-.22-.39-.22c-.09-1.01-.02-2.03-.03-3.03,0-.41,0-.81,0-1.22-.03-2.21.02-4.43.01-6.64-1.11-.75-2.21-1.48-3.27-2.32h1.22Z"/>
  <path class="cls-6" d="M61.52,2.06s-.13-.43-.41-.41c1.07-.63,1.65-.25,2.26-1.62,1.6-.38,2.58,2.36,1.15,2.81-.53.17-2.27-.55-3.01-.79Z"/>
  <path class="cls-9" d="M84.32,23.23c-.09.01-.45.35-.98.43-.83.12-1.82-.1-2.68-.02-.59-1.07-1.69-1.72-2.43-2.66s-1.09-1.8-1.64-2.64c1.86.94,2.8,3.25,4.51,4.24.97.56,2.12.71,3.23.64Z"/>
  <path class="cls-27" d="M106.72,28.53c-.84-.17-3.11-.08-4.07,0l2.44-.61c-.61-1.83-3.88-1.87-4.37-2.36-.2-.2-.06-.65-.1-.69.25.19,2.51.28,3.24.63.79.38,2.21,2.28,2.87,3.04Z"/>
  <path class="cls-9" d="M76.59,18.35c-.11-.06-.45.11-.72-.08-.32-.23-.53-1.48-1.31-1.54l-.41,1.63c-.46-.39-1.11-.83-1.63-1.22l1.78-1.6c1.25.7,1.66,1.86,2.29,2.83Z"/>
  <path class="cls-21" d="M160.87,27.71c.16.25.26.55.41.81-.71-.13-1.68.09-2.44,0,.09-.49-.06-1.11,0-1.63l2.03.81Z"/>
  <path class="cls-16" d="M164.13,30.56c0,.27,0,.54,0,.81-.64-.56-1.35-1.12-2.04-1.63v-.81c.8.44,1.24,1.21,2.04,1.63Z"/>
  <path class="cls-18" d="M100.61,24.86c-.36-.31-2.07-.71-1.22-2.04.68.69,1.13,1.96,1.22,2.04Z"/>
  <path class="cls-14" d="M183.27,44c.53.48,1.44.71,1.22,1.63-.77-.04-1.25-.97-1.63-1.22l.41-.41Z"/>
  <path class="cls-26" d="M93.69,21.6c-.03.54.05,1.09,0,1.63l-.48-1.15-1.15-.08c.39-.1.92-.69,1.63-.41Z"/>
  <path class="cls-7" d="M53.38,19.57c-.08.43.22,1.62-.2,1.63-.41-.31-.51-1.13-.61-1.63h.81Z"/>
  <path class="cls-10" d="M55.41,24.45c1.71,1.7,3.65,3.02,5.7,4.28l-2.44,1.02c-.01-.41.01-.82,0-1.22-.45-.05-.81-.02-1.22.2-1.6.84-5.08,6.41-6.36,6.69-1.05-.43-2.05-1.58-2.83-2.41-.44-.46-.5-1.15-.58-1.23l3.48-5.3c.14-.2.36-.4.6-.4.19,0,.59.55,1.2.22.73-.39,1.19-1.33,2.46-1.85Z"/>
  <path class="cls-28" d="M42.79,33.41c-2.15,1.63-3.28,3.55-4.47,5.94l-2.19-.59-2.3,2.39c-.23-1.59-.72-2.98-1.22-4.48l1.22-1.63h.41l.41.41c.4.08.32-.29.41-.41.22-.3.37-.79.41-.81.08-.07.32.07.41,0,2.17-1.72,4.94-3.82,6.51-6.11l.41,5.29Z"/>
  <path class="cls-2" d="M43.2,23.23c-1.9,3.98-5.18,6.99-8.14,10.18-.35.37-.57,1.11-1.22,1.22-.03,0-.26-.37-.54-.3-.47.12-.9.72-1.5.7-.5-1.66.37-2.61.79-4.3l10-9.95c1.23.74-.31,1.05-.18,1.79.16.31.46.55.79.65Z"/>
  <path class="cls-2" d="M49.3,24.05c-1.35,1.47-2.1,4.52-4.07,5.29-.58-.48-1.21-.94-2.03-.81-.02,1.62.02,3.26,0,4.88h-.41l-.41-5.29c.52-.75.87-1.6,1.22-2.44,1.06.25,1-.79,1.22-1.63,1.96.65,2.22-.26,2.85-2.04h.41c.11.21,1.14,1.95,1.22,2.04Z"/>
  <path class="cls-17" d="M51.75,26.08c-.24,0-.46.21-.6.4l-3.48,5.3c-.57-.6-1.9-1.99-2.44-2.44,1.97-.77,2.72-3.83,4.07-5.29.6.69,1.98,1.11,2.44,2.04Z"/>
  <path class="cls-12" d="M43.2,23.23c.28.08.81-.18,1.15.08.19.18.02.65.07.73-.72.36-.59,1.1-.81,1.63-.35.84-.71,1.69-1.22,2.44-1.57,2.28-4.35,4.39-6.51,6.11v-.41l-.81-.41c2.97-3.19,6.24-6.2,8.14-10.18Z"/>
  <path class="cls-21" d="M57.85,24.45c2.47.2,4.94.57,7.33.81.11,1.01-2.31,2.83-2.98,2.78-1.62-.72-3.12-1.73-4.48-2.85-.67-.55-1.25-.81.13-.74Z"/>
  <path class="cls-19" d="M46.86,18.75c.06.3-.41.76-.41.81.05-2.26-1.81.96-2.44.4,1.33-1.58,2.71-2.71,2.46-5.04l-.83-.66,1.22-.41c.19.23-.14,3.99,0,4.89Z"/>
  <path class="cls-4" d="M33.83,34.63v.41l-1.22,1.63c-.18-.54-.65-1.09-.81-1.63.6.02,1.03-.58,1.5-.7.27-.07.51.3.54.3Z"/>
  <path class="cls-15" d="M48.08,22.01h-.41c-.78-.29-1.2-1.68-1.22-2.44,0-.05.47-.52.41-.81.05.33,1.01,2.83,1.22,3.26Z"/>
  <path class="cls-29" d="M27.72,43.18c-.1-.3-.51-.34-.41-1.22.03-.23.74-.98.41-1.63.13.67.86,1.54.33,2.58l-.33.27Z"/>
  <path class="cls-23" d="M27.72,40.33c.33.64-.38,1.4-.41,1.63.07-.76-.32-2,.41-2.44.07.19-.05.56,0,.81Z"/>
  <path class="cls-19" d="M12.96,33.91c14.26-2.44,16.59,18.07,4.29,20.17-14.31,2.44-16.56-18.07-4.29-20.17ZM13.77,39.61c-4.53.94-4.41,8.42.72,8.88,4.03.36,5.85-2.45,5.01-6.24-.51-2.3-3.68-3.06-5.73-2.64Z"/>
  <path class="cls-5" d="M45.23,29.34c.54.45,1.87,1.84,2.44,2.44.08.08.15.77.58,1.23.77.82,1.78,1.97,2.83,2.41,1.29-.29,4.76-5.85,6.36-6.69.41-.22.77-.25,1.22-.2.01.4,0,.81,0,1.22.14,5.28-.1,10.6,0,15.88h-3.26v-9.37c-1.42,1.06-2.64,2.41-3.87,3.68-.31.32-.96.33-1.01.39-.67-1.22-1.88-1.94-2.85-2.85-.35-.32-.57-1.14-1.22-1.22v9.37h-3.26c.04-4.07-.05-8.15,0-12.22.02-1.62-.02-3.26,0-4.88.83-.13,1.46.33,2.03.81Z"/>
  <path class="cls-1" d="M50.53,40.33c-.19.21-2.3,5.64-3.47,3.68-.58-2.24-.1-4.42.62-6.53.97.91,2.18,1.63,2.85,2.85Z"/>
  <path class="cls-17" d="M73.33,32.6c.51,2.17-1.49,3.17-1.64,5.07l2.04,3.48c-1.63,1.25-2.57,1.67-4.78.91-6.66-2.3-2.35-13.45,4.37-9.46Z"/>
  <path class="cls-13" d="M73.74,41.15l-2.04-3.48c.15-1.9,2.15-2.9,1.64-5.07,3.27,1.94,3.44,6.22.41,8.55Z"/>
  <path class="cls-19" d="M99.8,34.23c.21-.35,0-.6.65-1.17.83-.74,2.57-.99,3.03-1.46.53-.54.06-1.49.79-1.44-.14,2.29,2.43,1.94,3.61,3.52.64.85.82,1.9.94,2.93l2.38.88-2.35.5c.19,3.25-3.39,3.54-4.2,4.55-.57.71.01,1.83-.77,1.87.19-2.71-1.8-1.98-3.25-3.06-1.81-1.34-.83-4.13-3.67-3.86.06-.66,1.45-.63,2.03-.81.53-.16,1.08-.32,1.63-.41l-.81-2.03Z"/>
  <path class="cls-28" d="M164.13,31.38c.25.22.42.5.81.81,1.06.84,2.15,1.56,3.27,2.32.01,2.21-.04,4.43-.01,6.64-2.31-.8-3.98-2.9-6.11-4.07,0-2.44,0-4.89,0-7.33.69.51,1.4,1.07,2.04,1.63Z"/>
  <path class="cls-3" d="M130.24,35.35l-4.38.5v-3.67c2.63-.12,6.16-.46,4.38,3.16Z"/>
  <path class="cls-30" d="M168.2,32.19l-.21,1.23-1.83-1.23h2.04Z"/>
  <path class="cls-2" d="M88.39,26.49l-1.43,1.62c-.53-.45-1.01-.89-1.02-1.62.81,0,1.63,0,2.44,0Z"/>
  <path class="cls-11" d="M13.77,39.61c2.04-.42,5.22.34,5.73,2.64.84,3.79-.98,6.61-5.01,6.24-5.13-.46-5.25-7.94-.72-8.88Z"/>
</svg>