<?xml version="1.0" encoding="UTF-8"?>
<svg id="Capa_1" data-name="Capa 1" xmlns="http://www.w3.org/2000/svg" viewBox="0 0 286.81 65.28">
  <defs>
    <style>
      .cls-1 {
        fill: #e6a84c;
      }

      .cls-2 {
        fill: #fff;
      }

      .cls-3 {
        fill: #f6a238;
      }

      .cls-4 {
        fill: #3d3d3d;
      }
    </style>
  </defs>
  <path class="cls-1" d="M38.06,12.87c1.31,0,2.6.26,3.8.72,1.02-.62,2.07-1.24,2.92-1.88,2.69-2.03,2.84-6.08,2.84-6.08-2.1,3.33-6.97,5.05-12.3,6.45l-.52,1.38c.9-.31,1.92-.55,2.93-.59h.35ZM69.78,37.51c.04.07.06.15.09.23,2.28-1.38,10.68.65,18.29-5.36,7.7-6.08,4.86-15.27,4.86-15.27-.67,2.57-3.65,7.43-11.89,9.33-8.24,1.89-14.86-1.48-14.46-7.43s11.89-5.27,11.89-5.27c-12.43-8.92-25.81,1.08-29.87,4.19-.35.27-.72.51-1.11.73,1.37,2.29,2.55,5.22,3.15,7.08.35-.06.74-.09,1.19-.09.57,0,1.17.06,1.76.18,2.36.46,7.63,2.38,8.55,3.03.46.33.86.75,1.11,1.16.8.36,2.49,1.31,3.92,3.5.05.07.09.15.14.22h.02c.44-.74,1.25-1.22,2.14-1.22,1.38,0,2.51,1.13,2.51,2.51s-1.03,2.4-2.32,2.5l.02-.02ZM22.83,19.23c-.22-1.29-.28-2.62-.11-3.74-1.18.44-2.26.93-3.2,1.48-3.97,2.34-6.08,6.45-7.19,9.82.88-.29,1.94-.56,3.19-.77.89-.15,1.87-.22,2.91-.22,1.29,0,3.15.12,5.28.61-.05-.36-.02-.86.78-2.84-.74-.99-1.33-2.56-1.64-4.37h0ZM75.05,43.88c-1.71.88-3.16,1.15-4.32,1.02-.24.31-.56.53-.95.62.13.62.24,1.26.33,1.9.39,2.9.28,5.7-.3,8.03,3.47-2.61,6.01-5.27,7.8-6.85,5.81-5.14,12.84-3.24,12.84-3.24-2.57-5.27-11.48-3.52-15.41-1.48h0ZM55.76,56.43h-.77c-.89,0-1.57-.02-2.03-.06-.46-.04-.9-.11-1.28-.17-.37-.06-.7-.11-.89-.11h0c-.48.19-1.83.62-3.1.66h-.15c-.84,0-1.37-.23-1.73-.38-.05-.02-.13-.05-.17-.07h-.15c-.24,0-.59.03-1.03.03-1.72,0-3.13-.3-4.2-.89-.5.15-1.3.35-1.96.35-.24,0-.45-.03-.64-.08-.29-.08-.58-.23-.85-.41-.91,1.86-2.12,3.55-3.57,5,11.49,3.89,20.44,2.97,27.33.33-.13-.04-.25-.07-.38-.11-2.24-.72-3.56-2.49-4.45-4.12v.02Z"/>
  <path class="cls-4" d="M69.58,36.48c.81,0,1.46-.65,1.46-1.46s-.65-1.46-1.46-1.46c-.72,0-1.32.52-1.43,1.22h-1.34c-.12-.23-.26-.46-.41-.69-1.72-2.64-3.8-3.24-3.8-3.24,0-.07-.27-.65-.95-1.13s-5.74-2.39-8.15-2.86c-.58-.12-1.11-.16-1.56-.16-.9,0-1.55.17-1.91.3-.52-1.96-2.28-6.48-4.17-9.05-2.16-2.95-5.29-4.01-7.8-4.01h-.31c-1.88.07-3.87,1-4.81,1.49l1.92-5.09c.12,0,.21,0,.26-.04.24-.18,1.35-2.95,1.41-3.29.03-.16-.05-.4-.24-.62.62-1.43,2.07-4.9,2.08-4.98,0-.1,0-.45-1.04-.83s-1.76-.08-1.83.03c-.05.08-1.13,3.43-1.6,4.88-.3,0-.51.02-.58.1-.07.09-.34.74-.59,1.41-.1-.03-.21-.04-.31-.02-.23.05-.47.3-.65.42-.06.04-.22.4-.4.86-.19-.23-.48-.83-.33-1.26.18-.51,1.44-3.33,1.55-4.01.08-.48.06-1.41,0-1.91.21-.08.35-.28.35-.51,0-.31-.25-.55-.55-.55s-.55.25-.55.55c0,.27.19.48.42.53,0,.47-.05,1.44-.3,2.13-.34.95-1.39,2.99-1.83,3.85-.42.86-.23,1.51-.02,1.85.13.22.48.55.71.76-.17.5-.28.9-.25.95.07.1.5.58.72.82l-.75,2.01c-.97-.11-1.83-.14-2.57-.13.49.56,1.16,1.59,1.44,3.13l-.56,1.5c0-2.98-1.55-4.38-1.83-4.6-1.45.11-2.25.37-2.25.37h0c-1.01.17-1.45,2.55-.98,5.31.35,2.01,1.07,3.66,1.83,4.34-.55,1.31-1.02,2.54-.96,2.9.07.51.42.9.64,1.11l-.2.52c-3.53-1.13-7.08-1.25-9.49-.85-4.1.67-5.95,2.08-5.95,2.08.65.92,1.38,1.26,1.89,1.37C4.79,33.24,0,39.69,0,47.21c0,9.98,8.43,18.07,18.83,18.07,8.04,0,14.91-4.84,17.6-11.65.29.3.95.95,1.52,1.1.74.21,2.47-.41,2.47-.41,1.83,1.28,4.83.95,5.27.95s.84.47,1.96.43c1.12-.03,2.4-.43,2.81-.61.41-.17,1.45.14,2.6.24.89.08,2.59.06,3.33.04.92,1.81,2.1,3.53,4.14,4.18,2.74.88,4.62.41,4.62.41,3.04-.41,4.8-5.96,3.94-12.4-.14-1-.33-1.96-.55-2.86l1-.19c.35-.07.57-.41.5-.75l-1.15-5.63c-.07-.32-.36-.53-.68-.51l-.39.03c-.12-.66-.34-1.45-.71-2.27h1.07c.16.64.73,1.12,1.41,1.12ZM36.08.85s.32-.17.9,0c.57.17.96.41.83.55-.14.15-.42.24-.98.05s-.88-.39-.74-.61h0ZM50.58,33.37c.03-.14.17-.23.31-.2.04,0,.44.1.99.24.06.02.12.03.19.05.02,0,.04,0,.06.02.08.02.16.04.24.07.04,0,.07.02.11.03.05,0,.09.03.14.04.05,0,.09.03.14.04.04,0,.08.02.12.04.05,0,.1.03.14.04.04,0,.08.02.11.04.05.02.1.03.14.05.04,0,.07.02.11.04.05.02.1.03.14.05.04,0,.07.02.1.04.04.02.09.03.13.05h0c.09.03.17.06.25.1.13.06.2.21.14.35-.04.1-.14.16-.24.16-.02,0-.04,0-.06,0h-.04c-.14-.06-.29-.12-.44-.17h0c-.16-.06-.32-.11-.48-.16h0c-.17-.05-.33-.1-.49-.15h0c-.16-.05-.33-.09-.47-.13h0c-.6-.16-1.08-.26-1.09-.26-.14-.03-.23-.17-.2-.31v-.06ZM50.22,35.14c.04-.14.18-.23.32-.19.1.02,2.31.58,3.49,1.13h0s.1.04.14.07c.13.06.19.22.12.35-.04.08-.11.13-.19.14h-.05s-.08,0-.12-.03c-.09-.05-.2-.09-.31-.14-.03,0-.05-.02-.08-.03-.11-.05-.23-.09-.35-.14h0c-.12-.05-.25-.09-.39-.14-.03,0-.06-.02-.08-.03-1.1-.37-2.31-.68-2.33-.68-.14-.04-.23-.18-.19-.32h0ZM49.77,37.06c.03-.14.18-.23.32-.2.07.02,1.38.34,2.88.98.14.06.27.12.41.18.02,0,.04.02.06.03.14.07.29.14.42.21.06.03.11.09.13.15-.05.11-.09.21-.14.32-.04.02-.07.03-.11.03s-.08,0-.12-.03c-.14-.07-.28-.14-.42-.21h0c-1.64-.76-3.22-1.15-3.24-1.15-.14-.03-.23-.18-.2-.32h.02ZM40.59,16.61c.02-.2.1-.39.21-.55.24-.16.65-.29,1.31-.09,1.22.38,3.38,2.5,4.97,5.78,1.45,2.99,1.94,4.57,1.71,4.9-.68-.84-1.82-2.24-2.69-2.88-1.22-.88-2.94-1.28-3.55-1.48-.61-.21-2.03-4.79-1.96-5.67h0ZM35.28,35.69c-.73-1.13-1.61-2.25-2.67-3.3l-2.55-6c.22-.12,1.12-.58,1.43-.58s3.01,7.68,3.79,9.88ZM32.68,9.91c.17.11.42.26.57.39.27.21.24.47-.1.95-.23.32-.68.12-.96-.05,0,0,.48-1.28.48-1.28ZM31.6,12.82c.3.13.72.36.82.65.17.47-1.62,5.1-2.1,5.88-.35.56-1.02.54-1.36.48,0,0,2.64-7.02,2.64-7.02ZM26.36,16.66c.19.53.35,1.17.47,1.89.05.28.08.54.11.79-.35.08-.96.07-1.2-.87-.24-.94.29-1.54.61-1.81ZM24.55,18.94c-.49-2.9.15-4.44.41-4.51h0c.13,0,.35.19.59.53-.21.51-.71,2.03-.37,3.92.3,1.61.83,2.59,1.14,3.04-.11.25-.23.5-.34.76-.46-.56-1.11-1.83-1.43-3.78v.02ZM27.65,20.7c.23-.07.85-.19,1.87.28,1.03.46,1.19.91,1.21,1.02l-.16.42c-.3-.94-1.81-1.3-1.81-1.3.41.64.03,2.5-.43,3.48-.47.98-1.52.67-1.79.71-.27.03-.21.31-.21.31,0,0,1.59.04,2.55,1.22l-.15.4c-.32-.32-.96-.81-2.04-1.08-.61-.16-1-.18-1.24-.15.21-.79,1.21-3.14,2.19-5.28h0ZM29.6,29.96c-.57-.36-1.17-.68-1.76-.98l.26-.67c.28-.04.52-.15.71-.25.18.47.54,1.31.79,1.9ZM25.79,28.23c.18.08.65.3.7.41.07.14-6.02,16.29-6.02,16.29-.24.5,0,.47.1.47s5.73-15.13,6.5-17.2c.09.03.19.05.27.07l-6.4,17.03s-.17.44-.49.58c-.15.07-.32.06-.51-.02-.54-.23-.45-.8-.42-.92,0,0,6.29-16.71,6.29-16.71ZM26.04,41.57c.74,1.19,1.18,2.6,1.18,4.11,0,4.26-3.39,7.7-7.57,7.7s-7.57-3.45-7.57-7.7,3.39-7.7,7.57-7.7c.57,0,1.14.07,1.67.2l-.03.07c-1.83-.13-3.89.33-5.34,1.53-2.75,2.29-2.75,5.86-2.39,6.76,0,0,.82-3.79,4.83-3.74-.87.55-1.45,1.52-1.45,2.63,0,1.72,1.39,3.11,3.11,3.11s2.99-1.28,3.09-2.91c.69,1.26,1.26,3.47-.98,6.08,0,0,3.01-.67,4.1-3.87.79-2.33.52-4.53-.23-6.28ZM19.28,59.63c-7.51,0-13.61-5.84-13.61-13.06s6.09-13.06,13.61-13.06c1.25,0,2.45.17,3.6.47l-.29.75c-.98-.24-2-.37-3.04-.37-6.92,0-12.52,5.36-12.52,11.97s5.6,11.97,12.52,11.97,12.52-5.36,12.52-11.97c0-4.63-2.75-8.64-6.77-10.62l.27-.71c4.35,2.18,7.31,6.53,7.31,11.56,0,7.2-6.09,13.06-13.61,13.06h0ZM37.39,44.15s-.04-.03-.07-.05c-.02-.02-.04-.03-.06-.05l-.03-.03s-.05-.05-.07-.08c0,0-.02-.02-.02-.03-.03-.04-.06-.09-.1-.14,0,0,0-.02,0-.03-.03-.05-.05-.1-.08-.16,0-.02-.02-.04-.02-.05-.03-.07-.06-.15-.08-.24-.23-.76-2.2-4.91-4.19-7.57-1.99-2.66-4.6-3.56-4.68-3.82,0-.03,0-.07,0-.1h0c0-.1.07-.21.23-.26.24-.07.67,0,1.4.4,1.26.69,3.41,2.72,4.91,5.28h0c.17.3.34.59.49.9.08.17.17.34.25.5.02.05.05.1.07.15.06.13.12.26.18.39.02.04.04.09.06.13.08.17.15.34.23.49,0,.02.02.04.02.06.07.15.13.3.19.43.02.05.04.09.06.14.06.13.11.26.16.39,0,.03.03.06.04.1.06.16.13.31.19.45,0,.03.02.05.03.08.05.12.1.24.14.36.02.04.03.08.05.12.04.11.09.22.13.33,0,.03.02.06.03.08.05.12.09.24.13.36.02.05.03.09.05.14.03.07.05.14.07.2.02.05.04.1.05.15.02.05.03.1.05.14.04.12.08.23.12.33.13.38.21.6.21.6,0,0-.04-.02-.09-.05v-.02ZM37.87,33.42h0c-.24,0-.43-.2-.43-.43s.2-.43.43-.43h0s2.19,0,4.79-1.29c.22-.11.47-.02.58.2.11.22.02.47-.2.58-2.77,1.36-5.04,1.38-5.18,1.38ZM38.56,35.64c-.24,0-.42-.22-.42-.45,0-.24.22-.42.45-.42.03,0,3.18.1,6.55-2.04.21-.13.47-.07.6.14s.07.47-.14.6c-3.23,2.05-6.23,2.17-6.91,2.17h-.15ZM39.47,38.08h-.28c-.24-.02-.42-.22-.41-.46,0-.24.22-.42.46-.41.03,0,3.18.16,6.59-1.9.21-.13.47-.06.6.15.13.21.06.47-.15.6-3.09,1.87-5.94,2.03-6.82,2.03h0ZM50.73,46.17c-.14-.91-.75-2.98-.75-2.98h0c.16.58.28,1.23.34,1.9.13,1.55-.08,2.97-.51,4.01-.02.04-.04.09-.05.13-.05.12-.11.23-.17.33-.4.72-.93,1.19-1.55,1.24-1.51.13-2.95-2.22-3.19-5.25-.26-3.02.77-5.58,2.28-5.7.93-.08,1.83.79,2.44,2.16.56.04,1.67.12,2.34.18.16.84.24,2.98.24,2.98h0c-.03.71-.05,1.57-.13,1.75-.14.31-1.15.17-1.28-.74ZM52.04,53.88s-.14-.43.31-.54c.32-.07,2.01-.27,2.97-.3.07.19.14.36.2.49.07.15.13.29.2.43-.88.09-2.61.15-3.68-.1h0ZM57.85,49.02c-.24.29-1.37.38-1.97.32h0s-.08,0-.11,0h0s-.06,0-.09-.02h-.03s-.03,0-.05,0c-.02,0-.04-.02-.05-.03-.21-.17-.17-.41-.17-.41,0,0,0-.09-.02-.24v-.25c-.11-1.26-.41-4.63-.37-5.56h0c0-.14.02-.23.04-.25.21-.17,2.16-.03,2.4.43.24.47.74,5.64.43,6.02h-.03ZM56.81,29.35c-1.92-.32-2.34-.86-2.82-1.28-.24-.22-.71-.43-1.15-.6.17.02.34.04.51.08,1.81.36,5.12,1.54,6.84,2.25-.89-.11-2.19-.25-3.39-.44ZM62.77,47.7c-.15-1.33.19-2.47.76-2.53.56-.06,1.15.97,1.29,2.3.15,1.33-.19,2.47-.76,2.53-.56.06-1.15-.97-1.29-2.3ZM65.54,56.43c-.41.06-.82-.11-1.23-.45.89-.24,1.57-1.32,1.92-3.1.35-1.76.35-4.02,0-6.38-.42-2.85-1.36-5.73-2.58-7.31,1.5.62,3.06,3.95,3.68,8.12.7,4.79-.1,8.87-1.79,9.12h0ZM67.08,38.17c-.14.17-.41-.24-.95-.98-.54-.74-2.43-2.36-4.09-3.07s-2.29-.31-2.23-.78c0,0,.31-1.52,1.38-1.59s2.74.5,4.16,2.43,1.86,3.81,1.72,3.98h0ZM47.62,41.95c-.73.06-1.21,1.62-1.06,3.5s.85,3.35,1.58,3.3c.73-.06,1.21-1.62,1.06-3.5s-.85-3.35-1.58-3.3Z"/>
  <g>
    <path class="cls-3" d="M118.91,37.13c-.11-2.93-.22-6.41-.21-9.95h-.1c-.77,3.09-1.79,6.52-2.69,9.37l-2.96,9.42h-4.24l-2.6-9.33c-.78-2.84-1.58-6.27-2.18-9.46h-.08c-.12,3.28-.25,7.01-.4,10.02l-.45,9.16h-5.05l1.55-24.15h7.28l2.36,8.07c.76,2.77,1.51,5.8,2.05,8.63h.12c.66-2.79,1.48-5.98,2.3-8.67l2.56-8.03h7.14l1.3,24.15h-5.31l-.38-9.24h-.01Z"/>
    <path class="cls-3" d="M150.89,34.05c0,7.92-4.78,12.71-11.84,12.71s-11.37-5.42-11.37-12.31,4.64-12.63,11.75-12.63,11.46,5.55,11.46,12.23h0ZM133.44,34.35c0,4.73,2.23,8.07,5.87,8.07s5.8-3.49,5.8-8.18c0-4.35-2.06-8.07-5.81-8.07s-5.86,3.49-5.86,8.19h0Z"/>
    <path class="cls-3" d="M158.15,26.8h-6.52v-4.58h18.59v4.58h-6.61v19.56h-5.46v-19.56h0Z"/>
    <path class="cls-3" d="M194.16,34.05c0,7.92-4.78,12.71-11.84,12.71s-11.37-5.42-11.37-12.31,4.64-12.63,11.75-12.63,11.46,5.55,11.46,12.23h0ZM176.72,34.35c0,4.73,2.23,8.07,5.87,8.07s5.8-3.49,5.8-8.18c0-4.35-2.06-8.07-5.81-8.07s-5.86,3.49-5.86,8.19h0Z"/>
    <path class="cls-2" d="M204.99,22.55c1.75-.3,4.35-.52,7.26-.52,3.58,0,6.09.55,7.82,1.91,1.44,1.14,2.23,2.84,2.23,5.06,0,3.06-2.19,5.19-4.26,5.93v.11c1.67.68,2.62,2.28,3.23,4.5.75,2.73,1.47,5.88,1.95,6.82h-5.59c-.37-.7-.97-2.64-1.66-5.63-.67-3.02-1.69-3.82-3.93-3.85h-1.62v9.48h-5.41v-23.82h-.02ZM210.4,32.93h2.14c2.71,0,4.33-1.38,4.33-3.48,0-2.21-1.52-3.34-4.01-3.35-1.31,0-2.07.09-2.46.18v6.65Z"/>
    <path class="cls-2" d="M240.58,36.15h-8.89v5.74h9.93v4.47h-15.39v-24.15h14.88v4.47h-9.42v5.03h8.89v4.43h0Z"/>
    <path class="cls-2" d="M245.36,46.37v-24.15h6.36l5.01,8.86c1.45,2.53,2.86,5.56,3.95,8.28h.09c-.34-3.2-.44-6.45-.44-10.1v-7.04h5.01v24.15h-5.72l-5.18-9.3c-1.44-2.61-3.02-5.7-4.2-8.53h-.12c.17,3.21.24,6.63.24,10.57v7.26h-5.01,0Z"/>
    <path class="cls-2" d="M274.74,26.8h-6.52v-4.58h18.59v4.58h-6.61v19.56h-5.46v-19.56h0Z"/>
  </g>
</svg>