<?xml version="1.0" encoding="UTF-8"?>
<svg id="Capa_2" data-name="Capa 2" xmlns="http://www.w3.org/2000/svg" viewBox="0 0 203.19 203.82">
  <g id="_Layer_" data-name="&amp;lt;Layer&amp;gt;">
    <g>
      <g>
        <path d="M165.31,108.66c-49.47-8.07-62.07-20.68-70.14-70.14-.73-4.45-7.16-4.45-7.89,0-8.07,49.47-20.68,62.07-70.14,70.14-4.45.73-4.45,7.16,0,7.89,49.47,8.07,62.07,20.68,70.14,70.14.73,4.45,7.16,4.45,7.89,0,8.07-49.47,20.68-62.07,70.14-70.14,4.45-.73,4.45-7.16,0-7.89Z"/>
        <path d="M187.56,54.18c-27.19-4.44-34.11-11.36-38.55-38.55-.4-2.45-3.93-2.45-4.33,0-4.44,27.19-11.36,34.11-38.55,38.55-2.45.4-2.45,3.93,0,4.33,27.19,4.44,34.11,11.36,38.55,38.55.4,2.45,3.93,2.45,4.33,0,4.44-27.19,11.36-34.11,38.55-38.55,2.45-.4,2.45-3.93,0-4.33Z"/>
      </g>
      <path d="M91.23,203.82c-8.77,0-16.15-6.27-17.57-14.9-7.16-43.91-14.85-51.6-58.75-58.76C6.28,128.76,0,121.38,0,112.62c0-8.76,6.26-16.15,14.9-17.57,43.91-7.16,51.6-14.85,58.76-58.75,1.41-8.64,8.8-14.91,17.56-14.91s16.15,6.27,17.56,14.92c.19,1.15.38,2.22.57,3.3,15.94-3.07,18.48-6.43,21.71-26.2,1.27-7.77,7.91-13.4,15.78-13.4s14.52,5.64,15.79,13.4c3.45,21.16,5.99,23.7,27.15,27.16h0c7.77,1.27,13.41,7.91,13.41,15.78s-5.64,14.52-13.41,15.78c-19.83,3.24-23.19,5.83-26.28,22.22,1.28.23,2.57.46,3.93.68l.11.02c8.64,1.41,14.91,8.8,14.91,17.57,0,8.76-6.27,16.14-14.92,17.55-43.89,7.16-51.58,14.85-58.74,58.75-1.41,8.64-8.79,14.91-17.55,14.91ZM91.23,24.25c-7.36,0-13.56,5.26-14.74,12.51-7.29,44.69-16.43,53.82-61.12,61.12-7.25,1.19-12.51,7.39-12.5,14.74,0,7.35,5.26,13.55,12.51,14.72,44.69,7.29,53.82,16.43,61.12,61.12,1.19,7.24,7.39,12.5,14.74,12.5,7.36,0,13.55-5.26,14.73-12.51,7.29-44.68,16.43-53.82,61.11-61.12,7.25-1.18,12.52-7.37,12.52-14.72,0-7.33-5.22-13.51-12.43-14.73h-.08c-1.66-.29-3.2-.56-4.74-.84l-2.16-.39.25-1.41c3.39-18.8,7.44-22.44,28.9-25.95,6.38-1.04,11.01-6.49,11.01-12.96s-4.63-11.92-11.01-12.96c-22.53-3.68-25.84-6.99-29.52-29.52-1.04-6.37-6.49-11-12.96-11s-11.92,4.63-12.96,11c-3.49,21.41-7.06,25.45-25.43,28.82l-1.42.26-.46-2.58c-.21-1.17-.42-2.35-.62-3.6-1.18-7.25-7.37-12.52-14.72-12.52Z"/>
    </g>
  </g>
</svg>